<svg xmlns="http://www.w3.org/2000/svg" xmlns:xlink="http://www.w3.org/1999/xlink" viewBox="0 0 1921.78125 298.25879">
  <defs>
    <linearGradient id="bb9f6449-7d29-4ef3-9cf2-119602557df6" x1="1209.27948" y1="374.43181" x2="1276.35146" y2="374.43181" gradientUnits="userSpaceOnUse">
      <stop offset="0" stop-color="#4039c3"/>
      <stop offset="1" stop-color="#1b1660"/>
    </linearGradient>
    <linearGradient id="b115356d-eb9a-4018-9c78-700264b7a11b" x1="1299.66544" y1="374.3822" x2="1370.79477" y2="374.3822" xlink:href="#bb9f6449-7d29-4ef3-9cf2-119602557df6"/>
    <linearGradient id="e666f57d-344c-4d83-b5f5-08ec68e76fed" x1="1450.41932" y1="374.37108" x2="1530.46781" y2="374.37108" xlink:href="#bb9f6449-7d29-4ef3-9cf2-119602557df6"/>
    <linearGradient id="e5aab00e-9f26-41f9-a823-0591fb8d8756" x1="1572.77914" y1="374.3822" x2="1584.66213" y2="374.3822" xlink:href="#bb9f6449-7d29-4ef3-9cf2-119602557df6"/>
    <linearGradient id="ecdc0c19-f440-4f36-af5a-4dea16f85e98" x1="1619.26375" y1="374.3822" x2="1747.14341" y2="374.3822" xlink:href="#bb9f6449-7d29-4ef3-9cf2-119602557df6"/>
    <linearGradient id="a3bb72dc-70fd-454a-bba5-6c07143d2669" x1="1778.31975" y1="374.33259" x2="1841.01616" y2="374.33259" xlink:href="#bb9f6449-7d29-4ef3-9cf2-119602557df6"/>
    <linearGradient id="ad02ba90-e6bd-4b2e-850d-d02ed9329154" x1="1872.78697" y1="374.33259" x2="1935.53303" y2="374.33259" xlink:href="#bb9f6449-7d29-4ef3-9cf2-119602557df6"/>
    <linearGradient id="f358003c-9f8a-43ab-983d-1edf9cedd354" x1="1059.93662" y1="370.43181" x2="1178.61087" y2="370.43181" xlink:href="#bb9f6449-7d29-4ef3-9cf2-119602557df6"/>
    <linearGradient id="a81d97d3-b404-42d2-9d08-c8c278d591d3" x1="18.29053" y1="216.97681" x2="1940.07178" y2="216.97681" gradientUnits="userSpaceOnUse">
      <stop offset="0" stop-color="#ff8a7d"/>
      <stop offset="1" stop-color="#4039c3"/>
    </linearGradient>
  </defs>
  <g id="ac2e5284-0325-4202-bab0-a84376ae9001" data-name="Layer 2">
    <g id="f50450f2-1192-473d-b068-e760982154f1" data-name="Main">
      <g id="b26a6bae-1d5d-4d74-9fda-2854d0219c84" data-name="Niwhiboutik">
        <g id="bbac8c87-8f26-4b88-8766-b359546e2493" data-name="Light">
          <g id="a2780618-48be-4805-8fc4-053b1924c4ca" data-name="logo-alone">
            <path id="b2d88ffc-7d56-4c25-836c-5b1241afa9d2" data-name="path23406" d="M1261.38555,368.92522a26.05212,26.05212,0,0,0-18.69454-44.4h-27.54463a5.92858,5.92858,0,0,0,0,11.85653H1242.691a14.38662,14.38662,0,1,1,0,28.77317h-27.54463a5.90323,5.90323,0,0,0-5.8669,5.85385,6.03414,6.03414,0,0,0,5.8669,6.00268h31.52219a17.73555,17.73555,0,1,1,0,35.47037h-31.5222a5.92858,5.92858,0,0,0,0,11.85653h31.5222a29.65306,29.65306,0,0,0,14.717-55.41316Z" transform="translate(-18.29053 -126.07959)" style="fill: url(#bb9f6449-7d29-4ef3-9cf2-119602557df6)"/>
            <path id="e24de53f-df63-4cdd-a77a-3017da676ed7" data-name="path23408" d="M1325.67294,351.31406l-15.71137-24.20915a5.44979,5.44979,0,0,0-4.57421-2.57966h-.14915a5.57879,5.57879,0,0,0-4.72336,8.53273l15.71137,24.20915a5.41478,5.41478,0,0,0,4.72336,2.57966,5.54843,5.54843,0,0,0,4.72336-8.53273Zm39.527-26.78881a5.50849,5.50849,0,0,0-4.72335,2.72849l-31.12444,50.40265V418.683a5.49127,5.49127,0,0,0,5.5686,5.5562h.69609a5.58492,5.58492,0,0,0,5.56859-5.5562V377.65639l.69609-1.141,27.99208-43.4574a5.51355,5.51355,0,0,0-4.67366-8.53273Z" transform="translate(-18.29053 -126.07959)" style="fill: url(#b115356d-eb9a-4018-9c78-700264b7a11b)"/>
            <path id="a53142f3-863b-45c0-a171-01cf4bff5c4b" data-name="path23410" d="M1523.90479,324.52525a6.157,6.157,0,0,0-5.27026,6.10189v74.463l-36.39469-51.94053a5.64007,5.64007,0,0,0-4.72336-2.57966,5.50009,5.50009,0,0,0-4.42505,8.53273l43.256,61.8127a7.77881,7.77881,0,0,0,14.12037-4.41519V330.3791A5.96311,5.96311,0,0,0,1523.90479,324.52525Zm-67.61857,0a6.00408,6.00408,0,0,0-5.8669,5.85385v88.0062a5.94213,5.94213,0,0,0,11.883,0V330.3791A6.03449,6.03449,0,0,0,1456.28622,324.52525Z" transform="translate(-18.29053 -126.07959)" style="fill: url(#e666f57d-344c-4d83-b5f5-08ec68e76fed)"/>
            <path id="a24947e7-498b-4df6-9406-75577c119300" data-name="path23412" d="M1578.64607,324.52525a6.00409,6.00409,0,0,0-5.86693,5.85385v88.0062a5.94214,5.94214,0,0,0,11.883,0V330.3791A6.00136,6.00136,0,0,0,1578.64607,324.52525Z" transform="translate(-18.29053 -126.07959)" style="fill: url(#e5aab00e-9f26-41f9-a823-0591fb8d8756)"/>
            <path id="b61ad65c-20a2-457f-ae0d-2ca456d27318" data-name="path23414" d="M1684.25037,324.52525a6.47773,6.47773,0,0,0-5.86693,3.81988l-25.65522,64.24354-20.98163-63.79706a6.27049,6.27049,0,0,0-6.01606-4.26637h-.2983a6.23621,6.23621,0,0,0-5.86694,8.13586l29.68256,89.84174a2.64211,2.64211,0,0,0,2.43627,1.6867,2.42881,2.42881,0,0,0,2.28709-1.58748l4.72335-11.80692,31.27362-77.886a6.17448,6.17448,0,0,0-5.71781-8.3839Zm56.68029,0h-.2983a6.2706,6.2706,0,0,0-5.86693,4.26636l-21.08105,63.79706-9.99362-25.0525a6.3554,6.3554,0,0,0-6.016-3.96871,6.11555,6.11555,0,0,0-5.41944,8.53273l20.13642,50.55148a2.70546,2.70546,0,0,0,2.43627,1.58749,2.44874,2.44874,0,0,0,2.28708-1.6867l29.68256-89.84174a6.15388,6.15388,0,0,0-5.86694-8.18547Z" transform="translate(-18.29053 -126.07959)" style="fill: url(#ecdc0c19-f440-4f36-af5a-4dea16f85e98)"/>
            <path id="f2210816-cdb9-4191-a652-f472fe428d53" data-name="path23416" d="M1784.18668,336.33217h50.81337a5.92891,5.92891,0,1,0,0-11.85653h-50.81337a5.92858,5.92858,0,0,0,0,11.85653Zm50.81343,76.05045H1790.2028V378.35091h37.09077a5.93616,5.93616,0,0,0,6.01606-5.85386,6.06272,6.06272,0,0,0-6.01606-6.00267h-43.10683a6.03414,6.03414,0,0,0-5.86693,6.00267v45.83864a6.00408,6.00408,0,0,0,5.86693,5.85385h50.81337a5.90452,5.90452,0,1,0,0-11.80692Z" transform="translate(-18.29053 -126.07959)" style="fill: url(#a3bb72dc-70fd-454a-bba5-6c07143d2669)"/>
            <path id="a7d37eaf-abdf-45c2-b6b1-71cd3c842cd8" data-name="path23418" d="M1878.70361,336.33217H1929.517a5.92891,5.92891,0,1,0,0-11.85653h-50.81336a5.92858,5.92858,0,0,0,0,11.85653Zm50.76366,76.05045H1884.67V378.35091h37.09078a5.93616,5.93616,0,0,0,6.016-5.85386,6.06272,6.06272,0,0,0-6.016-6.00267H1878.6539a6.03414,6.03414,0,0,0-5.86693,6.00267v45.83864a6.00409,6.00409,0,0,0,5.86693,5.85385h50.81337a5.90452,5.90452,0,1,0,0-11.80692Z" transform="translate(-18.29053 -126.07959)" style="fill: url(#ad02ba90-e6bd-4b2e-850d-d02ed9329154)"/>
          </g>
          <path id="a13ddbf7-cbe7-4b70-bbdd-46abba511bdb" data-name="Glyph" d="M1143.32255,318.22315a6.19789,6.19789,0,0,1,4.96045,1.16163c19.62207,13.71975,30.32787,31.83484,30.32787,50.829,0,19.4023-10.7058,37.54879-30.32787,51.26854a5.91828,5.91828,0,0,1-4.33255,1.22441,6.94125,6.94125,0,0,1-4.30115-1.9779l-42.85459-42.66622a7.87517,7.87517,0,0,1-2.22907-4.86627,7.11859,7.11859,0,0,1,2.22907-4.86628,6.9783,6.9783,0,0,1,4.86627-2.04069,6.78364,6.78364,0,0,1,4.86627,2.0093l38.58482,38.36506c12.7465-10.45464,19.68486-23.16973,19.68486-36.44995,0-14.37905-8.60231-28.53833-24.26856-39.55808a6.92177,6.92177,0,0,1-2.82558-4.45813,6.908,6.908,0,0,1,5.61976-7.97441Zm-48.09761,104.42078a6.99242,6.99242,0,0,1-5.14883-1.16163c-19.43369-13.71974-30.13949-31.86623-30.13949-51.26853,0-18.99415,10.7058-37.10924,30.1081-50.829a6.78078,6.78078,0,0,1,4.58371-1.22442,6.86035,6.86035,0,0,1,4.26976,1.97791l42.82319,42.66621a6.792,6.792,0,0,1,2.0407,4.86627,7.00567,7.00567,0,0,1-2.0093,4.86627,6.92215,6.92215,0,0,1-4.86627,2.0407,6.52613,6.52613,0,0,1-4.86627-2.0093L1093.43541,334.172c-12.7465,10.54882-19.68486,23.13834-19.68486,36.0418,0,14.81858,8.60232,28.94647,24.0802,39.96623a6.656,6.656,0,0,1,3.04534,4.48952,6.89892,6.89892,0,0,1-5.65115,7.97441Z" transform="translate(-18.29053 -126.07959)" style="fill: url(#f358003c-9f8a-43ab-983d-1edf9cedd354)"/>
          <g>
            <g>
              <path d="M181.55371,126.07959V307.874H140.1875l-1.71582-1.71191-48.2876-48.1919L62.1665,229.98193v.03662l-43.876-43.7788V131.08008h6.896l1.03858,1.03662,111.45654,111.21V169.85449l1.03857-1.03271ZM18.29053,206.2417l43.876,43.77881V307.874h-43.876Z" transform="translate(-18.29053 -126.07959)"/>
              <path d="M261.89746,131.08008v65.59863l-43.876-43.77881V131.08008Zm-43.876,41.82568,43.876,43.77539V307.874h-43.876Z" transform="translate(-18.29053 -126.07959)"/>
              <path d="M437.51367,192.49951,382.80469,307.874,298.49561,130.83887H347.6958l38.33984,80.51172,27.21778-57.15625,3.33642-7.02686,5.60157,12.083Zm93.00879-61.66015L470.40186,257.082l-24.189,50.792-3.79639-7.97314-20.68115-43.43506v-.00342l-.24023-.50342,22.20508-46.1206.04443-.09229,2.44433-5.13037,35.13184-73.77636Z" transform="translate(-18.29053 -126.07959)"/>
              <path d="M714.12012,131.08008V307.874H670.24463V241.53418H618.60645L559.688,182.74658v-51.6665h43.876v33.5293l33.21973,33.146h33.46094V131.08008ZM559.688,202.53711l43.876,43.77881V307.874H559.688Z" transform="translate(-18.29053 -126.07959)"/>
              <path d="M809.14453,131.08008v65.59863L765.269,152.8999V131.08008ZM765.269,172.90576l43.87549,43.77539V307.874H765.269Z" transform="translate(-18.29053 -126.07959)"/>
              <path d="M984.36377,219.47705A51.99106,51.99106,0,0,1,951.25439,307.71c-1.3496.10938-2.75488.16406-4.17089.16406H845.74316V224.18945l43.87452,43.77491v1.85791H937.1958a13.4705,13.4705,0,1,0,0-26.94092H889.61768v5.08056l-43.87452-43.7788v-73.103H947.0835a51.99892,51.99892,0,0,1,37.28027,88.397Zm-94.74609-33.42383,11.72851,11.70215h35.85742a13.46855,13.46855,0,1,0,0-26.937H889.61768Z" transform="translate(-18.29053 -126.07959)"/>
              <path d="M1150.76514,255.63086l31.28515,31.21533-3.17187,2.46A88.4801,88.4801,0,0,1,1054.5708,165.27l2.46582-3.16113,31.28418,31.21533-1.51758,2.39111a44.60969,44.60969,0,0,0,61.56641,61.43018Zm62.38281-36.15381a87.38632,87.38632,0,0,1-18.60938,54.20313l-2.46484,3.16455-31.28516-31.21534,1.51856-2.39062a44.60969,44.60969,0,0,0-61.56641-61.43018l-2.39648,1.51465-31.28418-31.21533,3.168-2.46a88.58373,88.58373,0,0,1,142.91992,69.8291Z" transform="translate(-18.29053 -126.07959)"/>
              <path d="M1293.57178,194.69678l-43.97461-43.87744V131.08008h43.97461Zm49.20508,69.0957,35.02343,34.94531-4.81445,2.05518a88.58594,88.58594,0,0,1-123.38867-81.31592V170.81787l43.97461,43.87744v4.78174a44.57573,44.57573,0,0,0,44.61816,44.51953c1.0127,0,2.01563-.03271,2.98438-.09863Zm84.00585-132.7124v88.397a87.38335,87.38335,0,0,1-9.26953,39.41309,89.30274,89.30274,0,0,1-24.83886,30.29931l-2.47266,1.92334-31.76758-31.69336,3.7168-2.36865a45.13677,45.13677,0,0,0,7.58691-6.0957,44.1698,44.1698,0,0,0,13.07032-31.478v-88.397Z" transform="translate(-18.29053 -126.07959)"/>
              <path d="M1640.41748,131.08008v43.77881h-66.7207v65.04l-43.876-43.77491V174.85889h-66.58887V131.08008ZM1529.8208,216.12646l43.876,43.77833V307.874h-43.876Z" transform="translate(-18.29053 -126.07959)"/>
              <path d="M1720.7417,131.08008v65.59863l-43.875-43.77881V131.08008Zm-43.875,41.82568,43.875,43.77539V307.874h-43.875Z" transform="translate(-18.29053 -126.07959)"/>
              <path d="M1940.07178,307.874h-62.05371L1757.34033,187.48047V131.08008h2.11817l70.10449,66.5332,104.96289-69.26709v52.45459l-1.58789,1.04785-71.71,47.356ZM1757.34033,207.48291l43.875,43.77881V307.874h-43.875Z" transform="translate(-18.29053 -126.07959)"/>
            </g>
            <g>
              <path d="M181.55371,126.07959V307.874H140.1875l-1.71582-1.71191-48.2876-48.1919L62.1665,229.98193v.03662l-43.876-43.7788V131.08008h6.896l1.03858,1.03662,111.45654,111.21V169.85449l1.03857-1.03271ZM18.29053,206.2417l43.876,43.77881V307.874h-43.876Z" transform="translate(-18.29053 -126.07959)" style="fill: url(#a81d97d3-b404-42d2-9d08-c8c278d591d3)"/>
              <path d="M261.89746,131.08008v65.59863l-43.876-43.77881V131.08008Zm-43.876,41.82568,43.876,43.77539V307.874h-43.876Z" transform="translate(-18.29053 -126.07959)" style="fill: url(#a81d97d3-b404-42d2-9d08-c8c278d591d3)"/>
              <path d="M437.51367,192.49951,382.80469,307.874,298.49561,130.83887H347.6958l38.33984,80.51172,27.21778-57.15625,3.33642-7.02686,5.60157,12.083Zm93.00879-61.66015L470.40186,257.082l-24.189,50.792-3.79639-7.97314-20.68115-43.43506v-.00342l-.24023-.50342,22.20508-46.1206.04443-.09229,2.44433-5.13037,35.13184-73.77636Z" transform="translate(-18.29053 -126.07959)" style="fill: url(#a81d97d3-b404-42d2-9d08-c8c278d591d3)"/>
              <path d="M714.12012,131.08008V307.874H670.24463V241.53418H618.60645L559.688,182.74658v-51.6665h43.876v33.5293l33.21973,33.146h33.46094V131.08008ZM559.688,202.53711l43.876,43.77881V307.874H559.688Z" transform="translate(-18.29053 -126.07959)" style="fill: url(#a81d97d3-b404-42d2-9d08-c8c278d591d3)"/>
              <path d="M809.14453,131.08008v65.59863L765.269,152.8999V131.08008ZM765.269,172.90576l43.87549,43.77539V307.874H765.269Z" transform="translate(-18.29053 -126.07959)" style="fill: url(#a81d97d3-b404-42d2-9d08-c8c278d591d3)"/>
              <path d="M984.36377,219.47705A51.99106,51.99106,0,0,1,951.25439,307.71c-1.3496.10938-2.75488.16406-4.17089.16406H845.74316V224.18945l43.87452,43.77491v1.85791H937.1958a13.4705,13.4705,0,1,0,0-26.94092H889.61768v5.08056l-43.87452-43.7788v-73.103H947.0835a51.99892,51.99892,0,0,1,37.28027,88.397Zm-94.74609-33.42383,11.72851,11.70215h35.85742a13.46855,13.46855,0,1,0,0-26.937H889.61768Z" transform="translate(-18.29053 -126.07959)" style="fill: url(#a81d97d3-b404-42d2-9d08-c8c278d591d3)"/>
              <path d="M1150.76514,255.63086l31.28515,31.21533-3.17187,2.46A88.4801,88.4801,0,0,1,1054.5708,165.27l2.46582-3.16113,31.28418,31.21533-1.51758,2.39111a44.60969,44.60969,0,0,0,61.56641,61.43018Zm62.38281-36.15381a87.38632,87.38632,0,0,1-18.60938,54.20313l-2.46484,3.16455-31.28516-31.21534,1.51856-2.39062a44.60969,44.60969,0,0,0-61.56641-61.43018l-2.39648,1.51465-31.28418-31.21533,3.168-2.46a88.58373,88.58373,0,0,1,142.91992,69.8291Z" transform="translate(-18.29053 -126.07959)" style="fill: url(#a81d97d3-b404-42d2-9d08-c8c278d591d3)"/>
              <path d="M1293.57178,194.69678l-43.97461-43.87744V131.08008h43.97461Zm49.20508,69.0957,35.02343,34.94531-4.81445,2.05518a88.58594,88.58594,0,0,1-123.38867-81.31592V170.81787l43.97461,43.87744v4.78174a44.57573,44.57573,0,0,0,44.61816,44.51953c1.0127,0,2.01563-.03271,2.98438-.09863Zm84.00585-132.7124v88.397a87.38335,87.38335,0,0,1-9.26953,39.41309,89.30274,89.30274,0,0,1-24.83886,30.29931l-2.47266,1.92334-31.76758-31.69336,3.7168-2.36865a45.13677,45.13677,0,0,0,7.58691-6.0957,44.1698,44.1698,0,0,0,13.07032-31.478v-88.397Z" transform="translate(-18.29053 -126.07959)" style="fill: url(#a81d97d3-b404-42d2-9d08-c8c278d591d3)"/>
              <path d="M1640.41748,131.08008v43.77881h-66.7207v65.04l-43.876-43.77491V174.85889h-66.58887V131.08008ZM1529.8208,216.12646l43.876,43.77833V307.874h-43.876Z" transform="translate(-18.29053 -126.07959)" style="fill: url(#a81d97d3-b404-42d2-9d08-c8c278d591d3)"/>
              <path d="M1720.7417,131.08008v65.59863l-43.875-43.77881V131.08008Zm-43.875,41.82568,43.875,43.77539V307.874h-43.875Z" transform="translate(-18.29053 -126.07959)" style="fill: url(#a81d97d3-b404-42d2-9d08-c8c278d591d3)"/>
              <path d="M1940.07178,307.874h-62.05371L1757.34033,187.48047V131.08008h2.11817l70.10449,66.5332,104.96289-69.26709v52.45459l-1.58789,1.04785-71.71,47.356ZM1757.34033,207.48291l43.875,43.77881V307.874h-43.875Z" transform="translate(-18.29053 -126.07959)" style="fill: url(#a81d97d3-b404-42d2-9d08-c8c278d591d3)"/>
            </g>
          </g>
        </g>
      </g>
    </g>
  </g>
</svg>
